<?xml version="1.0" encoding="UTF-8"?>
<svg version="1.1" xmlns="http://www.w3.org/2000/svg" width="1000" height="707">
<path d="M0 0 C1.32 0.66 2.64 1.32 4 2 C4 3.98 4 5.96 4 8 C5.98 8.66 7.96 9.32 10 10 C9.67 11.32 9.34 12.64 9 14 C7.68 14 6.36 14 5 14 C5.495 17.96 5.495 17.96 6 22 C7.65 22.33 9.3 22.66 11 23 C11 24.65 11 26.3 11 28 C10.360625 28.268125 9.72125 28.53625 9.0625 28.8125 C6.66868314 29.88667752 6.66868314 29.88667752 6 33 C9.3 33 12.6 33 16 33 C16 32.34 16 31.68 16 31 C15.34 31 14.68 31 14 31 C13.505 27.535 13.505 27.535 13 24 C14.32 23.67 15.64 23.34 17 23 C17 22.34 17 21.68 17 21 C15.515 21.495 15.515 21.495 14 22 C14 18.33333333 14 14.66666667 14 11 C15.32 11 16.64 11 18 11 C18.0825 10.21625 18.165 9.4325 18.25 8.625 C19 6 19 6 20.875 4.6875 C23 4 23 4 26 4 C26.13277344 4.61488281 26.26554688 5.22976563 26.40234375 5.86328125 C26.66724609 7.07564453 26.66724609 7.07564453 26.9375 8.3125 C27.19853516 9.51326172 27.19853516 9.51326172 27.46484375 10.73828125 C27.99886159 13.145401 27.99886159 13.145401 29 16 C27.35 16 25.7 16 24 16 C24.474375 17.19625 24.94875 18.3925 25.4375 19.625 C26.73482773 23.06414238 27.54236951 26.33895604 28 30 C26.35 30.66 24.7 31.32 23 32 C23 33.32 23 34.64 23 36 C23.99 35.67 24.98 35.34 26 35 C26 35.66 26 36.32 26 37 C27.65 37.33 29.3 37.66 31 38 C30.67 37.67 30.34 37.34 30 37 C29.34 36.34 28.68 35.68 28 35 C28.125 32.5 28.125 32.5 29 30 C30.9375 28.625 30.9375 28.625 33 28 C33.66 28.33 34.32 28.66 35 29 C35.226875 27.9275 35.45375 26.855 35.6875 25.75 C37.13026545 21.62781299 38.41910075 20.35585477 42 18 C42.66 18.33 43.32 18.66 44 19 C44 24 44 29 44 34 C44.23769206 36.1182079 44.23769206 36.1182079 45 38 C46.485 38.495 46.485 38.495 48 39 C48 39.66 48 40.32 48 41 C48.66 41 49.32 41 50 41 C50.226875 40.46375 50.45375 39.9275 50.6875 39.375 C52.43382056 36.21499137 54.6402849 33.7323017 57 31 C58.65 31.33 60.3 31.66 62 32 C60.67424603 36.64013889 58.66205688 40.00691468 56 44 C56 45.87511574 56.01786704 47.75041553 56.0625 49.625 C56 52 56 52 55 53 C53.00041636 53.04080783 50.99954746 53.04254356 49 53 C50.32 54.98 51.64 56.96 53 59 C54.32 58.34 55.64 57.68 57 57 C56.67 56.01 56.34 55.02 56 54 C57.25 52.4375 57.25 52.4375 59 51 C61.125 51.125 61.125 51.125 63 52 C63.33 52.99 63.66 53.98 64 55 C64.61488281 54.7834375 65.22976563 54.566875 65.86328125 54.34375 C66.67152344 54.0653125 67.47976563 53.786875 68.3125 53.5 C69.11300781 53.2215625 69.91351562 52.943125 70.73828125 52.65625 C73 52 73 52 76 52 C75.74410214 55.45462112 74.71373837 56.27381547 72.125 58.75 C69 61 69 61 66 61 C66.556875 62.1446875 66.556875 62.1446875 67.125 63.3125 C67.558125 64.6428125 67.558125 64.6428125 68 66 C67.34 66.99 66.68 67.98 66 69 C64.35 68.67 62.7 68.34 61 68 C60.67 66.68 60.34 65.36 60 64 C58.02 64.99 58.02 64.99 56 66 C56.22816406 66.62003906 56.45632813 67.24007812 56.69140625 67.87890625 C59.84021657 77.57950126 59.18063946 87.11192798 57 97 C57.66 97 58.32 97 59 97 C59.33 95.68 59.66 94.36 60 93 C61.65 93 63.3 93 65 93 C65.23460937 93.63421875 65.46921875 94.2684375 65.7109375 94.921875 C66.82290908 97.18250739 66.82290908 97.18250739 69.1640625 97.828125 C69.97617187 97.96734375 70.78828125 98.1065625 71.625 98.25 C72.44226563 98.39953125 73.25953125 98.5490625 74.1015625 98.703125 C74.72804688 98.80109375 75.35453125 98.8990625 76 99 C76 102 76 102 74.375 103.6875 C71.40794441 105.32718862 69.34181024 105.22278735 66 105 C65.67 105 65.34 105 65 105 C65.04640625 105.6290625 65.0928125 106.258125 65.140625 106.90625 C65.41239768 113.35114497 64.57709532 117.62317859 61 123 C60.38125 123.94552734 60.38125 123.94552734 59.75 124.91015625 C55.84486586 130.13549199 51.17952948 132.2245063 45 134 C41.18054595 134.49029965 37.41012837 134.55989497 33.5625 134.5625 C31.62619612 134.57142306 29.68989739 134.59298064 27.75390625 134.62890625 C26.49042358 134.6299939 26.49042358 134.6299939 25.20141602 134.63110352 C22.5656736 134.8538054 22.5656736 134.8538054 20 138 C19.01 140.64 18.02 143.28 17 146 C8.09 146 -0.82 146 -10 146 C-12.97 140.555 -12.97 140.555 -16 135 C-19.53766531 133.23116734 -20.58756851 132.75396812 -24.23046875 132.69140625 C-25.03419922 132.66626953 -25.83792969 132.64113281 -26.66601562 132.61523438 C-28.32740452 132.58048805 -29.98886882 132.54915444 -31.65039062 132.52148438 C-38.60408997 132.29467318 -44.66811336 130.89311741 -50.75 127.4375 C-57.6569412 119.95498037 -59.14355548 111.7617729 -59 102 C-65.435 102.495 -65.435 102.495 -72 103 C-71 98 -71 98 -69.00390625 96.55859375 C-67.79541016 96.00365234 -67.79541016 96.00365234 -66.5625 95.4375 C-62.90212753 93.7395102 -61.64055313 92.66667405 -60 89 C-57.875 88.25 -57.875 88.25 -56 88 C-55.34 89.32 -54.68 90.64 -54 92 C-53.34 92 -52.68 92 -52 92 C-52.33 86.72 -52.66 81.44 -53 76 C-55.94887974 75.89279635 -55.94887974 75.89279635 -58.5625 76.5625 C-61 77 -61 77 -63 76 C-62.67 74.02 -62.34 72.04 -62 70 C-62.61875 69.731875 -63.2375 69.46375 -63.875 69.1875 C-66 68 -66 68 -68 65 C-68.125 61.8125 -68.125 61.8125 -68 59 C-64.91395578 59.43061082 -62.24908704 59.89324841 -59.375 61.125 C-57.06667396 62.24651015 -57.06667396 62.24651015 -54.9375 61.375 C-53.9784375 61.189375 -53.9784375 61.189375 -53 61 C-50.75 62.9375 -50.75 62.9375 -49 65 C-47.68 62.69 -46.36 60.38 -45 58 C-45.33 58.33 -45.66 58.66 -46 59 C-48.4375 59.1875 -48.4375 59.1875 -51 59 C-51.66 58.34 -52.32 57.68 -53 57 C-52.46428571 53.46428571 -52.46428571 53.46428571 -51 52 C-51.763125 51.5875 -52.52625 51.175 -53.3125 50.75 C-56.06524998 48.95751164 -57.41573201 47.85168237 -59 45 C-59.6875 41.25 -59.6875 41.25 -60 38 C-59.01 37.505 -59.01 37.505 -58 37 C-57.34 37.33 -56.68 37.66 -56 38 C-56 38.66 -56 39.32 -56 40 C-55.2575 40.268125 -54.515 40.53625 -53.75 40.8125 C-51.10938051 41.95276751 -49.14447156 43.09380306 -47 45 C-47 45.66 -47 46.32 -47 47 C-46.34 47 -45.68 47 -45 47 C-43.55475116 42.57394994 -43.55475116 42.57394994 -43 38 C-43.66 37.236875 -44.32 36.47375 -45 35.6875 C-47.1957825 32.73691726 -47.4078532 31.56871549 -47 28 C-44.61118335 27.1468512 -43.37691245 26.87436252 -40.9375 27.6875 C-38.72742308 29.18464888 -37.47304791 30.79042813 -36 33 C-35.071875 32.79375 -34.14375 32.5875 -33.1875 32.375 C-30 32 -30 32 -27 34 C-27.33 35.65 -27.66 37.3 -28 39 C-25.37886292 39 -23.49064888 38.68707555 -21 38 C-21.495 36.02 -21.495 36.02 -22 34 C-23.32 34 -24.64 34 -26 34 C-27.30156133 27.78142918 -26.47499835 23.77499615 -24 18 C-25.32 18.33 -26.64 18.66 -28 19 C-28 17.68 -28 16.36 -28 15 C-26.68 14.67 -25.36 14.34 -24 14 C-24.020625 12.88625 -24.04125 11.7725 -24.0625 10.625 C-24 7 -24 7 -23 5 C-21.68 5 -20.36 5 -19 5 C-18.505 8.96 -18.505 8.96 -18 13 C-15.525 13.495 -15.525 13.495 -13 14 C-13 15.32 -13 16.64 -13 18 C-14.32 18 -15.64 18 -17 18 C-16.505 20.475 -16.505 20.475 -16 23 C-15.21625 22.95875 -14.4325 22.9175 -13.625 22.875 C-11 23 -11 23 -9 25 C-9.23047384 29.37900291 -10.88949669 31.09017432 -14 34 C-14 34.66 -14 35.32 -14 36 C-13.175 35.67 -12.35 35.34 -11.5 35 C-7.4126017 33.83217191 -4.23076656 33.8541115 0 34 C0 33.01 0 32.02 0 31 C-1.65 31.33 -3.3 31.66 -5 32 C-6.1875 30.3125 -6.1875 30.3125 -7 28 C-5.75 25.25 -5.75 25.25 -4 23 C-3.34 23 -2.68 23 -2 23 C-2.18129815 19.56206661 -2.18129815 19.56206661 -3 16 C-4.93597032 14.48705712 -4.93597032 14.48705712 -7 14 C-6.67 12.68 -6.34 11.36 -6 10 C-4.68 10 -3.36 10 -2 10 C-2.04125 8.72125 -2.0825 7.4425 -2.125 6.125 C-2.1953125 3.9453125 -2.1953125 3.9453125 -2 2 C-1.34 1.34 -0.68 0.68 0 0 Z M9 40 C11.85276137 42.93200474 14.65079784 45.64315404 18 48 C19.37562854 46.71034824 20.70766393 45.37310707 22 44 C22 43.34 22 42.68 22 42 C17.49646738 40.24252386 13.82360189 39.80705592 9 40 Z M38 40 C38 41.32 38 42.64 38 44 C39.92022703 45.77409808 39.92022703 45.77409808 42 47 C42.66 46.67 43.32 46.34 44 46 C42.95125002 43.37812506 42.35068687 42.20628639 39.875 40.75 C38.946875 40.37875 38.946875 40.37875 38 40 Z M-8.1875 40.9375 C-9.445625 41.288125 -10.70375 41.63875 -12 42 C-10.68 43.32 -9.36 44.64 -8 46 C-5.69 44.35 -3.38 42.7 -1 41 C-4.21717892 39.92760703 -5.05283612 40.06390515 -8.1875 40.9375 Z M-35 44 C-36.32 44.99 -37.64 45.98 -39 47 C-38.67 48.32 -38.34 49.64 -38 51 C-36.35 49.02 -34.7 47.04 -33 45 C-33.66 44.67 -34.32 44.34 -35 44 Z M-19 45 C-18.71125 45.5775 -18.4225 46.155 -18.125 46.75 C-17.08333333 48.83333333 -16.04166667 50.91666667 -15 53 C-14.01 51.68 -13.02 50.36 -12 49 C-13.81222534 46.9375006 -13.81222534 46.9375006 -16 45 C-16.99 45 -17.98 45 -19 45 Z M2 46 C2 46.66 2 47.32 2 48 C3.65 48 5.3 48 7 48 C6.67 47.34 6.34 46.68 6 46 C4.68 46 3.36 46 2 46 Z M-26 47 C-26.99 48.485 -26.99 48.485 -28 50 C-27.01 50.495 -27.01 50.495 -26 51 C-25.67 49.68 -25.34 48.36 -25 47 C-25.33 47 -25.66 47 -26 47 Z M-2 47 C-2.99 48.485 -2.99 48.485 -4 50 C-3.01 50 -2.02 50 -1 50 C-1.33 49.01 -1.66 48.02 -2 47 Z M25 47 C23.64172029 48.64639965 22.30745749 50.31295807 21 52 C22.32 52.99 23.64 53.98 25 55 C25.33 52.36 25.66 49.72 26 47 C25.67 47 25.34 47 25 47 Z M10 48 C10.66 49.32 11.32 50.64 12 52 C12 51.01 12 50.02 12 49 C11.34 48.67 10.68 48.34 10 48 Z M34 49 C34.99 50.485 34.99 50.485 36 52 C36 51.01 36 50.02 36 49 C35.34 49 34.68 49 34 49 Z M-41 51 C-40.67 51.66 -40.34 52.32 -40 53 C-39.67 52.34 -39.34 51.68 -39 51 C-39.66 51 -40.32 51 -41 51 Z M7 52 C7 53.98 7 55.96 7 58 C9.475 58.495 9.475 58.495 12 59 C11.81171228 56.55519921 11.81171228 56.55519921 11 54 C9.03241727 52.63979849 9.03241727 52.63979849 7 52 Z M2 52 C0.68 53.32 -0.64 54.64 -2 56 C-1.67 56.66 -1.34 57.32 -1 58 C0.65 58 2.3 58 4 58 C4 56.35 4 54.7 4 53 C3.34 52.67 2.68 52.34 2 52 Z M28 53 C28 53.66 28 54.32 28 55 C28.66 54.67 29.32 54.34 30 54 C29.34 53.67 28.68 53.34 28 53 Z M-33 54 C-33.66 55.32 -34.32 56.64 -35 58 C-33.35 58 -31.7 58 -30 58 C-30 56.68 -30 55.36 -30 54 C-30.99 54 -31.98 54 -33 54 Z M-11.6875 55.375 C-13.2094457 56.91117258 -13.2094457 56.91117258 -13 59 C-10.69 59 -8.38 59 -6 59 C-6.33 57.35 -6.66 55.7 -7 54 C-9.97517573 53.68416352 -9.97517573 53.68416352 -11.6875 55.375 Z M38 55 C38 56.32 38 57.64 38 59 C39.89179203 59.6814823 39.89179203 59.6814823 42 60 C42.66 59.34 43.32 58.68 44 58 C43.34 57.01 42.68 56.02 42 55 C40.68 55 39.36 55 38 55 Z M16 56 C16.33 56.99 16.66 57.98 17 59 C18.65 59 20.3 59 22 59 C20.68798827 57.43750191 20.68798827 57.43750191 19 56 C18.01 56 17.02 56 16 56 Z M-27.125 60 C-27.74375 60.66 -28.3625 61.32 -29 62 C-26.1575146 63.57273568 -26.1575146 63.57273568 -23 64 C-23 62.02 -23 60.04 -23 58 C-25.24362573 57.7715451 -25.24362573 57.7715451 -27.125 60 Z M-20 59 C-20 60.32 -20 61.64 -20 63 C-18.35 63 -16.7 63 -15 63 C-15.66 61.68 -16.32 60.36 -17 59 C-17.99 59 -18.98 59 -20 59 Z M25.875 61.875 C23.77945945 63.77762162 23.77945945 63.77762162 24 66 C25.65 66 27.3 66 29 66 C29.33 64.02 29.66 62.04 30 60 C27.77762162 59.77945945 27.77762162 59.77945945 25.875 61.875 Z M33 60 C33 61.65 33 63.3 33 65 C34.65 65 36.3 65 38 65 C37.20882096 63.00016466 37.20882096 63.00016466 36 61 C35.01 60.67 34.02 60.34 33 60 Z M-2 61 C-1.80528889 62.94999129 -1.80528889 62.94999129 -1 65 C0.9837767 66.28436734 0.9837767 66.28436734 3 67 C3 65.35 3 63.7 3 62 C1.35 61.67 -0.3 61.34 -2 61 Z M6 62 C6 63.65 6 65.3 6 67 C9.16115776 65.63016497 9.9927092 65.0109362 12 62 C10.02 62 8.04 62 6 62 Z M-37 63 C-36.01 63.495 -36.01 63.495 -35 64 C-35 64.66 -35 65.32 -35 66 C-34.34 66 -33.68 66 -33 66 C-33 65.01 -33 64.02 -33 63 C-34.32 63 -35.64 63 -37 63 Z M-10 64 C-10 64.99 -10 65.98 -10 67 C-9.34 67 -8.68 67 -8 67 C-8 67.66 -8 68.32 -8 69 C-6.68 68.67 -5.36 68.34 -4 68 C-4.33 66.68 -4.66 65.36 -5 64 C-6.65 64 -8.3 64 -10 64 Z M15 64 C14.34 65.32 13.68 66.64 13 68 C14.83700789 68.77242269 14.83700789 68.77242269 17 69 C18.81299492 67.77045984 18.81299492 67.77045984 20 66 C20 65.34 20 64.68 20 64 C18.35 64 16.7 64 15 64 Z M42 64 C42 65.98 42 67.96 42 70 C44.0162233 69.28436734 44.0162233 69.28436734 46 68 C46.80528889 65.94999129 46.80528889 65.94999129 47 64 C45.35 64 43.7 64 42 64 Z M-51 67 C-51 70 -51 70 -51 70 Z M-42 67 C-43.68630119 70.51033129 -43.68630119 70.51033129 -43.625 74.3125 C-43.41875 74.869375 -43.2125 75.42625 -43 76 C-41.35 74.35 -39.7 72.7 -38 71 C-38.66 69.68 -39.32 68.36 -40 67 C-40.66 67 -41.32 67 -42 67 Z M-29 67 C-26.96197865 71.06024321 -26.96197865 71.06024321 -23 73 C-23 71.02 -23 69.04 -23 67 C-24.98 67 -26.96 67 -29 67 Z M-19 67 C-19 68.65 -19 70.3 -19 72 C-17.00016466 71.20882096 -17.00016466 71.20882096 -15 70 C-14.67 69.01 -14.34 68.02 -14 67 C-15.65 67 -17.3 67 -19 67 Z M24 69 C24.71563266 71.0162233 24.71563266 71.0162233 26 73 C28.05000871 73.80528889 28.05000871 73.80528889 30 74 C30 72.35 30 70.7 30 69 C28.02 69 26.04 69 24 69 Z M33 69 C33 70.65 33 72.3 33 74 C35.0162233 73.28436734 35.0162233 73.28436734 37 72 C37.80528889 69.94999129 37.80528889 69.94999129 38 68 C36.27917076 68 34.65771414 68.5722028 33 69 Z M0 70 C-1.0260734 71.31337396 -2.02727325 72.64664105 -3 74 C-2.01 74.33 -1.02 74.66 0 75 C0.33 75.66 0.66 76.32 1 77 C1 74.69 1 72.38 1 70 C0.67 70 0.34 70 0 70 Z M7 70 C7 72.31 7 74.62 7 77 C9.0399719 75.63676257 9.0399719 75.63676257 11 74 C11 73.34 11 72.68 11 72 C9.68 71.34 8.36 70.68 7 70 Z M48 71 C47.01 71.66 46.02 72.32 45 73 C46.39332574 76.36720387 47.9789286 77.9859524 51 80 C50.87625 78.700625 50.7525 77.40125 50.625 76.0625 C50.55539062 75.33160156 50.48578125 74.60070312 50.4140625 73.84765625 C50.27742187 73.23792969 50.14078125 72.62820313 50 72 C49.34 71.67 48.68 71.34 48 71 Z M-13 72 C-14.485 73.98 -14.485 73.98 -16 76 C-14.68 75.34 -13.36 74.68 -12 74 C-12.33 73.34 -12.66 72.68 -13 72 Z M20 72 C20 72.99 20 73.98 20 75 C22.94236782 77.21168225 22.94236782 77.21168225 26 79 C26.32539569 75.89944369 26.32539569 75.89944369 24.125 73.8125 C22.21188666 71.78368446 22.21188666 71.78368446 20 72 Z M-35 74 C-36.65 75.98 -38.3 77.96 -40 80 C-36.7 80 -33.4 80 -30 80 C-30 78.68 -30 77.36 -30 76 C-32.475 75.01 -32.475 75.01 -35 74 Z M-18 76 C-17.67 76.66 -17.34 77.32 -17 78 C-16.67 77.34 -16.34 76.68 -16 76 C-16.66 76 -17.32 76 -18 76 Z M-8 77 C-8.99 78.485 -8.99 78.485 -10 80 C-8.35 80 -6.7 80 -5 80 C-5.99 79.01 -6.98 78.02 -8 77 Z M11.875 79 C11.25625 79.66 10.6375 80.32 10 81 C12.97 81 15.94 81 19 81 C17.63676257 78.9600281 17.63676257 78.9600281 16 77 C13.75637427 76.7715451 13.75637427 76.7715451 11.875 79 Z M37.9375 80 C37.298125 80.66 36.65875 81.32 36 82 C38.97 82 41.94 82 45 82 C43.68799596 80.64567325 42.35368596 79.31266518 41 78 C39.64082319 77.88397569 39.64082319 77.88397569 37.9375 80 Z M-39 86 C-37.35 87.65 -35.7 89.3 -34 91 C-30.34683329 89.75023244 -29.21934164 89.32901247 -27 86 C-30.96 86 -34.92 86 -39 86 Z M-13 87 C-11.68 88.32 -10.36 89.64 -9 91 C-8.01 90.67 -7.02 90.34 -6 90 C-5.67 89.01 -5.34 88.02 -5 87 C-7.64 87 -10.28 87 -13 87 Z M11 87 C11.99 88.32 12.98 89.64 14 91 C17.61855575 90.37611108 18.1709277 89.8290723 21 87 C17.7 87 14.4 87 11 87 Z M34 87 C36.10390941 91.23578792 36.10390941 91.23578792 40 93 C42.02054804 91.35830472 44.02043058 89.69088222 46 88 C46 87.67 46 87.34 46 87 C42.04 87 38.08 87 34 87 Z M-44 88 C-43.855625 89.27875 -43.71125 90.5575 -43.5625 91.875 C-43.48128906 92.59429687 -43.40007812 93.31359375 -43.31640625 94.0546875 C-43.08707039 96.07404316 -43.08707039 96.07404316 -42 98 C-40.05925139 97.72382467 -40.05925139 97.72382467 -38 97 C-37.34 96.01 -36.68 95.02 -36 94 C-38.64 92.02 -41.28 90.04 -44 88 Z M-19 89 C-19 92.63 -19 96.26 -19 100 C-14.76421208 97.89609059 -14.76421208 97.89609059 -13 94 C-14.98 92.35 -16.96 90.7 -19 89 Z M-1 90 C-2.38232443 91.62626404 -3.71937515 93.2925002 -5 95 C-3.71034824 96.37562854 -2.37310707 97.70766393 -1 99 C-0.34 99 0.32 99 1 99 C1 96.03 1 93.06 1 90 C0.34 90 -0.32 90 -1 90 Z M-26.5625 92.5 C-27.036875 92.995 -27.51125 93.49 -28 94 C-27.34 95.32 -26.68 96.64 -26 98 C-25.67 98 -25.34 98 -25 98 C-24.67 95.69 -24.34 93.38 -24 91 C-25.24076302 90.88457803 -25.24076302 90.88457803 -26.5625 92.5 Z M6 91 C6 93.31 6 95.62 6 98 C7.65 97.01 9.3 96.02 11 95 C9.68799596 93.64567325 8.35368596 92.31266518 7 91 C6.67 91 6.34 91 6 91 Z M21.375 93.5 C20.59125 94.325 19.8075 95.15 19 96 C21.31 97.98 23.62 99.96 26 102 C26 98.37 26 94.74 26 91 C23.63721264 90.77011494 23.63721264 90.77011494 21.375 93.5 Z M46.375 93.25 C43.75489255 95.67820688 43.75489255 95.67820688 44 98.25 C44.94279946 100.35137474 44.94279946 100.35137474 48 101 C49.60355101 97.49223216 50.22036864 94.85645121 50 91 C48.55032124 90.89153477 48.55032124 90.89153477 46.375 93.25 Z M32 94 C32 95.65 32 97.3 32 99 C32.66 98.67 33.32 98.34 34 98 C33.34 96.68 32.68 95.36 32 94 Z M-51 97 C-51.35820185 98.99569601 -51.68377223 100.99722415 -52 103 C-52.14179688 103.69996094 -52.28359375 104.39992188 -52.4296875 105.12109375 C-53.31445809 110.33040629 -52.91478801 113.68703095 -50.22265625 118.27734375 C-46.81901419 123.07289055 -43.07512966 124.62383875 -37.4921875 125.6953125 C-33.32460301 126.2048291 -29.18966408 126.1574404 -25 126 C-26.64881235 124.90079177 -28.30972241 123.81692764 -30.015625 122.80859375 C-38.90131797 117.35600943 -45.84633274 108.98535067 -48.6015625 98.76953125 C-48.73304688 98.18558594 -48.86453125 97.60164063 -49 97 C-49.66 97 -50.32 97 -51 97 Z M-34 99 C-35.63676257 100.9600281 -35.63676257 100.9600281 -37 103 C-34.03 103 -31.06 103 -28 103 C-29.28965176 101.62437146 -30.62689293 100.29233607 -32 99 C-32.66 99 -33.32 99 -34 99 Z M-12.25 100.9375 C-13.11625 101.9584375 -13.11625 101.9584375 -14 103 C-11.03 103 -8.06 103 -5 103 C-5.63941744 99.9194894 -5.63941744 99.9194894 -7.8125 99.0625 C-10.21828941 98.74787037 -10.21828941 98.74787037 -12.25 100.9375 Z M13 99 C10.79857668 101.4390706 10.79857668 101.4390706 9 104 C13.0527516 104.98248524 16.83861737 105.08159574 21 105 C20.236875 104.01 19.47375 103.02 18.6875 102 C18.04361328 101.1646875 18.04361328 101.1646875 17.38671875 100.3125 C15.95508863 98.65629795 15.95508863 98.65629795 13 99 Z M38 101 C36.61767557 102.62626404 35.28062485 104.2925002 34 106 C37.3 106 40.6 106 44 106 C42.71937515 104.2925002 41.38232443 102.62626404 40 101 C39.34 101 38.68 101 38 101 Z M55 102 C54.47212891 103.051875 54.47212891 103.051875 53.93359375 104.125 C49.03603348 113.53649963 43.78802557 120.0815338 35 126 C35 126.33 35 126.66 35 127 C43.51998991 127.59289444 43.51998991 127.59289444 51.5625 125.3125 C55.9951599 121.107156 58.63808374 118.27321516 59 112 C58.78223521 108.98098811 58.43265726 105.99531948 58 103 C57.01 102.67 56.02 102.34 55 102 Z M-36 108 C-35.34 109.32 -34.68 110.64 -34 112 C-32.05925139 111.72382467 -32.05925139 111.72382467 -30 111 C-29.34 110.01 -28.68 109.02 -28 108 C-30.64 108 -33.28 108 -36 108 Z M-14 108 C-12.68 109.32 -11.36 110.64 -10 112 C-8.68 110.68 -7.36 109.36 -6 108 C-8.64 108 -11.28 108 -14 108 Z M10 109 C11.65 110.98 13.3 112.96 15 115 C18.16115776 113.63016497 18.9927092 113.0109362 21 110 C17.37 109.67 13.74 109.34 10 109 Z M-20 111 C-20 113.31 -20 115.62 -20 118 C-18.68 117.67 -17.36 117.34 -16 117 C-16 116.01 -16 115.02 -16 114 C-17.94009522 112.29467677 -17.94009522 112.29467677 -20 111 Z M35 111 C35.66 112.32 36.32 113.64 37 115 C38.32 114.34 39.64 113.68 41 113 C41 112.34 41 111.68 41 111 C39.02 111 37.04 111 35 111 Z M-6 115 C-4.79618552 117.49361571 -3.54571278 119.68143083 -2 122 C-1.34 122 -0.68 122 0 122 C0 118.37 0 114.74 0 111 C-2.22114466 111 -4.35878948 113.65336573 -6 115 Z M5 112 C5 115.3 5 118.6 5 122 C6.98 121.67 8.96 121.34 11 121 C11.44160248 117.1691947 11.44160248 117.1691947 9.6875 115.515625 C9.130625 115.09796875 8.57375 114.6803125 8 114.25 C7.01 113.5075 6.02 112.765 5 112 Z M-27 114 C-27.33 114.66 -27.66 115.32 -28 116 C-27.01 116.33 -26.02 116.66 -25 117 C-25.33 116.01 -25.66 115.02 -26 114 C-26.33 114 -26.66 114 -27 114 Z M24 115 C22.96986723 116.64821244 21.96885372 118.31503702 21 120 C22.32 120 23.64 120 25 120 C25 118.35 25 116.7 25 115 C24.67 115 24.34 115 24 115 Z M31 115 C31.33 116.65 31.66 118.3 32 120 C32.66 119.67 33.32 119.34 34 119 C33.34 117.68 32.68 116.36 32 115 C31.67 115 31.34 115 31 115 Z M-12 119 C-12.33 120.65 -12.66 122.3 -13 124 C-11.35 124 -9.7 124 -8 124 C-8 123.01 -8 122.02 -8 121 C-9.32 120.34 -10.64 119.68 -12 119 Z M-6 134 C-5.62095792 137.29075996 -5.62095792 137.29075996 -4 140 C-1.46950598 140.07313567 1.03304837 140.09247527 3.5625 140.0625 C4.27341797 140.05798828 4.98433594 140.05347656 5.71679688 140.04882812 C7.47790013 140.03700864 9.23896036 140.01907263 11 140 C11.6878236 137.64632287 11.6878236 137.64632287 12 135 C11.34 134.01 10.68 133.02 10 132 C7.24316429 131.55800506 7.24316429 131.55800506 4.125 131.6875 C3.07570313 131.69136719 2.02640625 131.69523438 0.9453125 131.69921875 C-1.89634192 131.98941423 -3.58301662 132.53463085 -6 134 Z " fill="#FDFDFC" transform="translate(498,281)"/>
<path d="M0 0 C4.29 0 8.58 0 13 0 C13.268125 1.3303125 13.53625 2.660625 13.8125 4.03125 C18.95018246 28.19297241 29.59849935 47.98180144 50.61328125 61.859375 C69.09206566 73.70676585 91.01262335 77.74247793 112.625 73.875 C129.57521522 70.02431417 143.58715565 62.20561823 156 50 C156.69996094 49.31292969 157.39992188 48.62585938 158.12109375 47.91796875 C169.85163594 35.59289616 176.18216798 19.6449011 178.640625 2.9765625 C179 1 179 1 180 0 C182.18639453 -0.07258946 184.37500389 -0.08373783 186.5625 -0.0625 C188.35880859 -0.04896484 188.35880859 -0.04896484 190.19140625 -0.03515625 C191.11824219 -0.02355469 192.04507813 -0.01195312 193 0 C190.46487113 26.6756097 178.50198067 50.06375471 158.015625 67.546875 C151.70441824 72.41925742 145.16617529 76.51375256 138 80 C137.12472656 80.44085938 136.24945312 80.88171875 135.34765625 81.3359375 C113.2707299 91.55386975 86.47098876 91.93748317 63.59960938 84.18652344 C43.41056013 76.65939236 25.13528219 62.63070217 14 44 C13.33355469 42.89269531 12.66710937 41.78539062 11.98046875 40.64453125 C4.9056894 28.39732398 -0.27988864 14.27432058 0 0 Z " fill="#FDFDFD" transform="translate(404,364)"/>
<path d="M0 0 C1.30119781 0.00007553 2.60239563 0.00015106 3.94302368 0.00022888 C5.36875445 0.00533592 6.79448484 0.01055192 8.22021484 0.01586914 C9.67467195 0.01773392 11.12912969 0.01915754 12.58358765 0.02015686 C16.4140801 0.02397734 20.24453472 0.03380363 24.07501221 0.04486084 C27.98278288 0.05508504 31.89055966 0.05965665 35.79833984 0.06469727 C43.46762794 0.07542631 51.13688484 0.09249711 58.80615234 0.11352539 C58.83303385 1.75927105 58.85249358 3.40513952 58.86865234 5.05102539 C58.88025391 5.96754883 58.89185547 6.88407227 58.90380859 7.82836914 C58.80615234 10.11352539 58.80615234 10.11352539 57.80615234 11.11352539 C55.8739124 11.23709617 53.93721435 11.29146997 52.0012207 11.31884766 C50.76000961 11.33879288 49.51879852 11.3587381 48.23997498 11.37928772 C46.87531664 11.39627332 45.51065698 11.41315208 44.14599609 11.42993164 C42.75736359 11.45049475 41.36873744 11.47149105 39.9801178 11.49290466 C36.31901176 11.54819186 32.65784861 11.59757165 28.99664307 11.64575195 C25.26317237 11.6959186 21.52978496 11.75162985 17.79638672 11.80688477 C10.46637905 11.91454757 3.13630229 12.01597433 -4.19384766 12.11352539 C-5.54476293 14.81535595 -5.53242824 17.23160745 -5.75634766 20.23852539 C-5.84013672 21.33422852 -5.92392578 22.42993164 -6.01025391 23.55883789 C-6.07083984 24.40188477 -6.13142578 25.24493164 -6.19384766 26.11352539 C-5.39427139 26.11130478 -4.59469513 26.10908417 -3.77088928 26.10679626 C3.74874874 26.08679447 11.26837394 26.07155184 18.78803158 26.06171322 C22.65435352 26.05648514 26.52065356 26.04938885 30.38696289 26.03808594 C34.11518635 26.02725439 37.84338869 26.02124799 41.57162666 26.01864815 C42.9970489 26.01679438 44.42246993 26.01317468 45.84788322 26.00779533 C47.83778642 26.00058146 49.82771068 26.00011731 51.81762695 26 C52.95235947 25.99777939 54.08709198 25.99555878 55.25621033 25.99327087 C57.80615234 26.11352539 57.80615234 26.11352539 58.80615234 27.11352539 C58.87820746 28.79961505 58.89001302 30.48853198 58.86865234 32.17602539 C58.85962891 33.09512695 58.85060547 34.01422852 58.84130859 34.96118164 C58.82970703 35.67145508 58.81810547 36.38172852 58.80615234 37.11352539 C56.04624245 38.49348034 53.8834086 38.19060767 50.79589844 38.13525391 C49.53474213 38.11515762 48.27358582 38.09506134 46.97421265 38.07435608 C45.59266955 38.04715767 44.21112866 38.01984686 42.82958984 37.99243164 C41.41998041 37.96813288 40.01036306 37.9442892 38.60073853 37.92088318 C34.88853958 37.85801783 31.17648052 37.78895821 27.4644165 37.71862793 C23.67735165 37.64796656 19.89018753 37.58313646 16.10302734 37.51782227 C8.67062371 37.38877833 1.23837528 37.25265479 -6.19384766 37.11352539 C-5.86384766 42.06352539 -5.53384766 47.01352539 -5.19384766 52.11352539 C26.48615234 52.60852539 26.48615234 52.60852539 58.80615234 53.11352539 C58.80615234 56.41352539 58.80615234 59.71352539 58.80615234 63.11352539 C57.03987793 64.8797998 54.50687182 64.25949238 52.11230469 64.2746582 C50.28437881 64.28906952 50.28437881 64.28906952 48.41952515 64.30377197 C47.07704861 64.30862178 45.7345699 64.31290016 44.39208984 64.31665039 C43.02023313 64.32240211 41.64837644 64.32815984 40.27651978 64.33392334 C37.39300155 64.34444721 34.5095113 64.3502796 31.62597656 64.35375977 C27.94403699 64.35922288 24.26247129 64.3831975 20.58064842 64.41173172 C17.74263464 64.43043394 14.90470913 64.43556788 12.06663895 64.43709564 C10.05320191 64.44157014 8.03981226 64.46018855 6.02645874 64.47906494 C-7.32251266 64.44669274 -7.32251266 64.44669274 -12.93603516 59.61352539 C-17.08722896 54.11677221 -17.36309809 49.98203567 -17.39697266 43.28149414 C-17.40267273 42.41212723 -17.4083728 41.54276031 -17.41424561 40.64704895 C-17.42369043 38.80702937 -17.43022754 36.96699291 -17.43408203 35.12695312 C-17.44377502 32.32204395 -17.47479776 29.5178716 -17.50634766 26.71313477 C-17.51287933 24.92342556 -17.51812916 23.13371113 -17.52197266 21.34399414 C-17.53431946 20.50942184 -17.54666626 19.67484955 -17.55938721 18.81498718 C-17.53785936 13.14308449 -16.68664521 8.78392685 -12.65869141 4.46899414 C-7.94827 0.86690718 -5.906701 -0.0114029 0 0 Z " fill="#FDFDFD" transform="translate(714.19384765625,327.886474609375)"/>
<path d="M0 0 C1.92131241 0.00033989 1.92131241 0.00033989 3.88143921 0.00068665 C5.26422482 0.01600305 6.64700679 0.03165098 8.02978516 0.04760742 C9.456101 0.05320863 10.88242264 0.05747625 12.30874634 0.06047058 C16.04726333 0.07187817 19.78542592 0.10130942 23.52380371 0.13458252 C27.34475919 0.16537209 31.1657724 0.17899483 34.98681641 0.1940918 C42.47265436 0.22618368 49.95820119 0.27732971 57.44384766 0.34057617 C57.44384766 3.97057617 57.44384766 7.60057617 57.44384766 11.34057617 C36.65384766 11.67057617 15.86384766 12.00057617 -5.55615234 12.34057617 C-6.93841251 15.1050965 -6.65140621 17.38671248 -6.61865234 20.46557617 C-6.60511719 22.10913086 -6.60511719 22.10913086 -6.59130859 23.78588867 C-6.57970703 24.62893555 -6.56810547 25.47198242 -6.55615234 26.34057617 C-5.76910416 26.33835556 -4.98205597 26.33613495 -4.17115784 26.33384705 C3.23075096 26.31384505 10.63264673 26.29860251 18.03457546 26.288764 C21.84036343 26.28353597 25.64612914 26.27643979 29.4519043 26.26513672 C33.1217731 26.25430497 36.79162044 26.24829873 40.46150398 26.24569893 C41.86459758 26.2438452 43.26768995 26.24022557 44.67077446 26.23484612 C46.62954446 26.22763198 48.58833586 26.22716809 50.54711914 26.22705078 C51.66408676 26.22483017 52.78105438 26.22260956 53.93186951 26.22032166 C56.44384766 26.34057617 56.44384766 26.34057617 57.44384766 27.34057617 C57.44384766 30.64057617 57.44384766 33.94057617 57.44384766 37.34057617 C35.99384766 37.34057617 14.54384766 37.34057617 -7.55615234 37.34057617 C-8.05658801 49.27400142 -8.05658801 49.27400142 -4.55615234 52.34057617 C-1.84580596 52.67290302 -1.84580596 52.67290302 1.36230469 52.65942383 C2.60344025 52.67929352 3.84457581 52.69916321 5.12332153 52.71963501 C6.48276593 52.73151228 7.84221221 52.74317509 9.20166016 52.75463867 C10.58886883 52.77334347 11.97606606 52.79291636 13.36325073 52.81332397 C17.0161057 52.86472429 20.66899759 52.90430742 24.32202148 52.94146729 C28.04892163 52.98145766 31.77566715 53.03257256 35.50244141 53.08276367 C42.81613753 53.17961636 50.12990825 53.26399092 57.44384766 53.34057617 C57.44384766 56.97057617 57.44384766 60.60057617 57.44384766 64.34057617 C49.36789273 64.43355592 41.29216417 64.50448177 33.21580505 64.54782486 C29.46496576 64.56863515 25.71449464 64.59683084 21.96386719 64.64233398 C18.33931904 64.68602867 14.71512338 64.70976253 11.09033203 64.72008514 C9.71250872 64.72743449 8.33470311 64.74178563 6.95703125 64.7634964 C-0.95926821 64.88320532 -6.86247768 64.79832156 -13.55615234 60.34057617 C-18.50410403 54.37766004 -18.7125581 48.8981819 -18.72412109 41.40698242 C-18.72744949 40.65142563 -18.73077789 39.89586884 -18.73420715 39.11741638 C-18.73925317 37.52473557 -18.7416162 35.93204426 -18.74145508 34.33935547 C-18.74364208 31.91445373 -18.76182357 29.49000697 -18.78076172 27.06518555 C-18.78369611 25.51245272 -18.7856806 23.95971774 -18.78662109 22.40698242 C-18.79380661 21.68805313 -18.80099213 20.96912384 -18.80839539 20.22840881 C-18.7775604 13.3717888 -17.38513696 8.30369925 -12.55615234 3.34057617 C-8.20276889 0.75289508 -5.04096846 -0.02988716 0 0 Z " fill="#FDFDFD" transform="translate(156.55615234375,327.659423828125)"/>
<path d="M0 0 C4.72849084 1.10185512 7.27379465 4.15266672 10.53125 7.58984375 C11.57453947 8.61953101 12.62171966 9.64528477 13.671875 10.66796875 C18.82097427 15.70572812 23.80426209 20.8016922 28.4609375 26.30078125 C32.15313374 30.38309634 36.12099777 34.19824632 40.03125 38.0703125 C44.40266565 42.41539432 48.58101154 46.85516077 52.53125 51.58984375 C52.86125 51.91984375 53.19125 52.24984375 53.53125 52.58984375 C53.86125 35.42984375 54.19125 18.26984375 54.53125 0.58984375 C58.16125 0.58984375 61.79125 0.58984375 65.53125 0.58984375 C65.64433887 8.19602733 65.73601606 15.80189667 65.79031086 23.40871716 C65.81637388 26.9411722 65.85170866 30.47302088 65.90844727 34.00512695 C65.97331064 38.06858036 65.99745732 42.13139973 66.01953125 46.1953125 C66.04533768 47.46005905 66.0711441 48.7248056 66.09773254 50.02787781 C66.10085683 59.79686635 66.10085683 59.79686635 63.14331055 62.88989258 C60.45132361 64.64186052 59.19933736 65.2237066 56.03125 65.08984375 C54.93296875 65.074375 54.93296875 65.074375 53.8125 65.05859375 C47.74502046 63.81185138 43.81995131 59.15575584 39.65625 54.90234375 C39.03347168 54.27312012 38.41069336 53.64389648 37.76904297 52.99560547 C34.07211462 49.23665787 30.50948138 45.40333307 27.1015625 41.37890625 C24.69935925 38.64206773 22.08187865 36.13204979 19.48828125 33.578125 C17.64394014 31.70433333 15.92492934 29.77670904 14.21875 27.77734375 C9.56443976 22.4919406 4.51111397 17.56970772 -0.46875 12.58984375 C-0.79875 29.74984375 -1.12875 46.90984375 -1.46875 64.58984375 C-5.09875 64.58984375 -8.72875 64.58984375 -12.46875 64.58984375 C-13.7682333 61.99087714 -13.58419564 60.11969314 -13.56982422 57.2097168 C-13.56586639 56.08482346 -13.56190857 54.95993011 -13.55783081 53.8009491 C-13.50997988 48.65404494 -13.46058846 43.50726295 -13.39160156 38.3605957 C-13.34788719 34.97115967 -13.33203789 31.58218667 -13.32237053 28.19250774 C-13.30637882 24.95359432 -13.25613858 21.71517971 -13.2109375 18.4765625 C-13.21173309 17.26183762 -13.21252869 16.04711273 -13.21334839 14.795578 C-13.02421571 5.4149388 -13.02421571 5.4149388 -10.07202148 2.33032227 C-6.46573014 -0.08074882 -4.24522963 -0.25596237 0 0 Z " fill="#FDFEFD" transform="translate(323.46875,327.41015625)"/>
<path d="M0 0 C3.23881167 1.83794157 5.54026113 4.22816523 8 7 C8.54785156 7.61359375 9.09570312 8.2271875 9.66015625 8.859375 C10.7902945 10.15248827 11.90964127 11.45509129 13.01953125 12.765625 C15.40457737 15.45644626 17.93973686 17.97817536 20.5 20.5 C23.55342309 23.51203633 26.54074381 26.5355123 29.3125 29.8125 C34.33861009 35.7111133 39.97651945 41.05901409 45.48535156 46.5012207 C46.99548192 47.99552926 48.49775972 49.49775972 50 51 C50.33 34.17 50.66 17.34 51 0 C54.63 0 58.26 0 62 0 C62.22131027 7.4754851 62.42511968 14.95095841 62.59840012 22.42772198 C62.67956125 25.89972825 62.76829115 29.37119213 62.87451172 32.8425293 C62.99637578 36.83607323 63.0849662 40.82976012 63.171875 44.82421875 C63.21439392 46.06709152 63.25691284 47.30996429 63.30072021 48.59049988 C63.33120453 50.33173882 63.33120453 50.33173882 63.36230469 52.1081543 C63.38895203 53.12741501 63.41559937 54.14667572 63.4430542 55.19682312 C62.87782821 58.77297347 61.477258 60.41444961 59 63 C56.70122891 64.14938555 55.24537319 64.19841264 52.6875 64.25 C51.92824219 64.27578125 51.16898438 64.3015625 50.38671875 64.328125 C41.39149538 63.09146581 34.42776368 52.57346898 28.87890625 46.09765625 C26.67372704 43.635741 24.35113323 41.3227636 22 39 C19.06881809 36.10408042 16.23596826 33.19757429 13.5625 30.0625 C9.01609398 24.74570059 3.97845306 19.9071058 -1 15 C-1.99 14.01 -2.98 13.02 -4 12 C-4.33 29.16 -4.66 46.32 -5 64 C-8.3 64 -11.6 64 -15 64 C-16.00344955 60.98965135 -16.13813396 58.94544777 -16.16113281 55.79760742 C-16.17074036 54.73607956 -16.1803479 53.6745517 -16.19024658 52.58085632 C-16.19449646 51.43397842 -16.19874634 50.28710052 -16.203125 49.10546875 C-16.20882507 47.92535721 -16.21452515 46.74524567 -16.22039795 45.52937317 C-16.22985036 43.03025205 -16.23638288 40.53111845 -16.24023438 38.03198242 C-16.24993483 34.21315699 -16.28095476 30.39487085 -16.3125 26.57617188 C-16.3190306 24.1484407 -16.32428085 21.72070567 -16.328125 19.29296875 C-16.3404718 18.15216354 -16.3528186 17.01135834 -16.36553955 15.83598328 C-16.33733812 5.77190602 -16.33733812 5.77190602 -13 1 C-8.95828814 -1.02085593 -4.37332137 -0.71110917 0 0 Z " fill="#FDFDFC" transform="translate(799,328)"/>
<path d="M0 0 C3.63 0 7.26 0 11 0 C11 8.58 11 17.16 11 26 C27.76678423 27.31207606 27.76678423 27.31207606 42.36083984 20.63354492 C44.56598529 18.35468371 46.66600838 16.02195116 48.67626953 13.56933594 C50.95733311 10.86504293 53.667851 8.69664248 56.37109375 6.43359375 C58.24996599 4.84330289 58.24996599 4.84330289 60.5625 2.0625 C65.15573248 -1.89673701 73.29813802 -0.32644248 79 0 C77.9123293 3.2630121 77.24933287 3.87839928 74.6875 6 C71.04656111 9.08531985 67.50498051 12.26191857 64 15.5 C59.92825081 19.25224596 55.81892954 22.95145846 51.62109375 26.5625 C50.0163427 27.98550816 48.5002349 29.46784521 47 31 C48.59772973 35.20402636 51.72960776 37.76834097 55 40.6875 C55.58088379 41.21424316 56.16176758 41.74098633 56.76025391 42.28369141 C58.50213776 43.86109323 60.25086932 45.4306439 62 47 C62.93585937 47.84949219 63.87171875 48.69898438 64.8359375 49.57421875 C68.54421446 52.93448818 72.27425764 56.24138384 76.125 59.4375 C77.07375 60.283125 78.0225 61.12875 79 62 C79 62.66 79 63.32 79 64 C73.18391407 65.03947068 67.18320424 65.95487793 61.94628906 62.73876953 C57.81008426 59.41103229 54.18622919 55.58022525 50.58740234 51.68798828 C48.63123943 49.60787287 46.54583546 47.72815222 44.375 45.875 C43.78203125 45.36453125 43.1890625 44.8540625 42.578125 44.328125 C36.54755338 39.09177324 36.54755338 39.09177324 28.9921875 37.90234375 C28.1038623 37.90484131 27.21553711 37.90733887 26.30029297 37.90991211 C25.16994629 37.91901611 24.03959961 37.92812012 22.875 37.9375 C19.28625 37.958125 15.6975 37.97875 12 38 C11.67 46.58 11.34 55.16 11 64 C7.7 64 4.4 64 1 64 C0 63 0 63 -0.12025452 60.48802185 C-0.11803391 59.37105423 -0.11581329 58.25408661 -0.11352539 57.10327148 C-0.11344986 55.84203964 -0.11337433 54.5808078 -0.11329651 53.28135681 C-0.1081891 51.89460206 -0.10297309 50.50784771 -0.09765625 49.12109375 C-0.09579201 47.71004791 -0.09436814 46.29900143 -0.09336853 44.88795471 C-0.08954379 41.16759465 -0.0797139 37.4472734 -0.06866455 33.72692871 C-0.05844948 29.93319219 -0.05387071 26.13944942 -0.04882812 22.34570312 C-0.03809158 14.89711769 -0.0210157 7.44856428 0 0 Z " fill="#FDFDFC" transform="translate(612,328)"/>
<path d="M0 0 C3.63 0 7.26 0 11 0 C11.33 8.58 11.66 17.16 12 26 C15.3 26.12375 18.6 26.2475 22 26.375 C23.02351563 26.42962402 24.04703125 26.48424805 25.1015625 26.54052734 C32.24445571 26.66906625 35.8609166 24.83775122 41 20 C41.59425781 19.47212891 42.18851562 18.94425781 42.80078125 18.40039062 C44.56275654 16.81617559 46.28253503 15.19474724 48 13.5625 C48.61246582 12.99700439 49.22493164 12.43150879 49.85595703 11.84887695 C52.39091957 9.50536566 54.83066095 7.19183428 57.1171875 4.6015625 C60.22388901 1.21870974 62.45547201 -0.11653484 67.0390625 -0.4140625 C71.0469216 -0.50372477 75.00430839 -0.30549584 79 0 C76.33769302 3.27213456 73.81757211 6.36372197 70.5625 9.0625 C65.94046741 12.99783061 61.5224539 17.13702689 57.09985352 21.29321289 C53.49810454 24.66252548 49.81848148 27.87789812 46 31 C47.35428461 34.10412761 48.77134253 35.91475724 51.375 38.0625 C54.99720951 41.12491349 58.51632957 44.28177815 62 47.5 C70.1362844 55.20109025 70.1362844 55.20109025 79 62 C79 62.66 79 63.32 79 64 C65.17677614 65.37384188 65.17677614 65.37384188 60.21484375 62.2421875 C57.98932019 59.92638697 55.99723317 57.51368942 54 55 C52.7181696 53.79971746 51.40607936 52.6307351 50.0625 51.5 C46.00191183 48.01949586 42.05039685 44.42683304 38.1015625 40.8203125 C34.88712196 38.03605731 32.9519961 37.84430754 28.7734375 37.68359375 C27.84450684 37.64548584 26.91557617 37.60737793 25.95849609 37.56811523 C24.77594238 37.52501221 23.59338867 37.48190918 22.375 37.4375 C18.62125 37.293125 14.8675 37.14875 11 37 C11 45.91 11 54.82 11 64 C7.37 64 3.74 64 0 64 C0 42.88 0 21.76 0 0 Z " fill="#FDFDFC" transform="translate(225,328)"/>
<path d="M0 0 C25.74 0 51.48 0 78 0 C78 3.63 78 7.26 78 11 C67.11 11 56.22 11 45 11 C45.01160156 14.74214844 45.02320313 18.48429687 45.03515625 22.33984375 C45.04294547 25.94718338 45.049023 29.55452209 45.05493164 33.16186523 C45.05997363 35.67716895 45.06680703 38.19246972 45.07543945 40.70776367 C45.08751094 44.31429775 45.09322949 47.92079323 45.09765625 51.52734375 C45.10281754 52.65961899 45.10797882 53.79189423 45.11329651 54.95848083 C45.11337204 55.99948441 45.11344757 57.04048798 45.11352539 58.11303711 C45.115746 59.03459091 45.11796661 59.95614471 45.12025452 60.90562439 C45 63 45 63 44 64 C40.7 64 37.4 64 34 64 C33.67 46.51 33.34 29.02 33 11 C22.11 11 11.22 11 0 11 C0 7.37 0 3.74 0 0 Z " fill="#FEFEFE" transform="translate(53,328)"/>
<path d="M0 0 C25.74 0 51.48 0 78 0 C78 3.63 78 7.26 78 11 C67.11 11 56.22 11 45 11 C45.01160156 14.74214844 45.02320313 18.48429687 45.03515625 22.33984375 C45.04294547 25.94718338 45.049023 29.55452209 45.05493164 33.16186523 C45.05997363 35.67716895 45.06680703 38.19246972 45.07543945 40.70776367 C45.08751094 44.31429775 45.09322949 47.92079323 45.09765625 51.52734375 C45.10281754 52.65961899 45.10797882 53.79189423 45.11329651 54.95848083 C45.11337204 55.99948441 45.11344757 57.04048798 45.11352539 58.11303711 C45.115746 59.03459091 45.11796661 59.95614471 45.12025452 60.90562439 C45 63 45 63 44 64 C40.7 64 37.4 64 34 64 C34 46.51 34 29.02 34 11 C23.18466757 11.03959995 23.18466757 11.03959995 12.36938477 11.09008789 C11.01839273 11.09300716 9.66739981 11.09555569 8.31640625 11.09765625 C7.60899292 11.10277222 6.90157959 11.10788818 6.17272949 11.11315918 C4.44807383 11.11347032 2.72353162 11.06225761 1 11 C0.67 10.67 0.34 10.34 0 10 C0 6.7 0 3.4 0 0 Z " fill="#FDFDFD" transform="translate(870,328)"/>
<path d="M0 0 C5.78883995 0.51686071 11.352323 1.65344738 17 3 C15.36446366 7.65498806 15.36446366 7.65498806 13.609375 9.31640625 C11.4960209 11.52722086 10.40040342 13.87821686 9.0625 16.625 C8.54558594 17.68460937 8.02867187 18.74421875 7.49609375 19.8359375 C5.5930099 23.86073624 3.75621925 27.90904221 2 32 C0.68 31.67 -0.64 31.34 -2 31 C-1.67 30.34 -1.34 29.68 -1 29 C-1.721875 28.87625 -2.44375 28.7525 -3.1875 28.625 C-5.9657312 28.00761529 -8.38223555 27.10221661 -11 26 C-11.99 25.67 -12.98 25.34 -14 25 C-11.69 20.38 -9.38 15.76 -7 11 C-6.34 11 -5.68 11 -5 11 C-4.67 12.98 -4.34 14.96 -4 17 C-0.37 16.67 3.26 16.34 7 16 C6.05125 14.453125 5.1025 12.90625 4.125 11.3125 C2.06355453 7.9514476 0.37287342 4.69876091 -1 1 C-0.67 0.67 -0.34 0.34 0 0 Z M5 6 C5.33 6.66 5.66 7.32 6 8 C6.33 7.34 6.66 6.68 7 6 C6.34 6 5.68 6 5 6 Z M9 7 C8.34 8.32 7.68 9.64 7 11 C7.99 11.495 7.99 11.495 9 12 C9.66 11.67 10.32 11.34 11 11 C11.65213292 8.97536745 11.65213292 8.97536745 12 7 C11.01 7 10.02 7 9 7 Z M-8 17 C-8.33 18.32 -8.66 19.64 -9 21 C-8.01 21.33 -7.02 21.66 -6 22 C-6.33 20.35 -6.66 18.7 -7 17 C-7.33 17 -7.66 17 -8 17 Z M-3 24 C-0.525 24.495 -0.525 24.495 2 25 C2.33 24.01 2.66 23.02 3 22 C-0.18490007 21.7226499 -0.18490007 21.7226499 -3 24 Z " fill="#FDFDFC" transform="translate(421,297)"/>
<path d="M0 0 C3.62076948 0.43793324 5.4559071 2.04909955 8.0625 4.5 C10.5055145 6.78827462 11.78051271 7.92683757 15 9 C15 9.66 15 10.32 15 11 C13.25318707 11.98484108 11.5024149 12.96266187 9.75 13.9375 C8.77546875 14.48277344 7.8009375 15.02804687 6.796875 15.58984375 C4 17 4 17 1.71875 17.5625 C-0.23632592 17.84636318 -0.23632592 17.84636318 -1.25 20.0625 C-1.4975 20.701875 -1.745 21.34125 -2 22 C-3.65 21.67 -5.3 21.34 -7 21 C-7 20.34 -7 19.68 -7 19 C-8.32 19 -9.64 19 -11 19 C-9.36526484 22.12474627 -9.36526484 22.12474627 -6.875 22.6875 C-6.25625 22.790625 -5.6375 22.89375 -5 23 C-5 23.66 -5 24.32 -5 25 C-9.47058824 29 -9.47058824 29 -12 29 C-12.6496875 27.6078125 -12.6496875 27.6078125 -13.3125 26.1875 C-15.74799358 21.58234664 -15.74799358 21.58234664 -20.1875 19.3125 C-20.785625 19.209375 -21.38375 19.10625 -22 19 C-20.56131994 14.68395982 -17.65740375 12.58260646 -14 10 C-11.1875 9 -11.1875 9 -9 9 C-7 11 -7 11 -7 14 C-6.01 14.66 -5.02 15.32 -4 16 C-3.01 15.67 -2.02 15.34 -1 15 C-0.34 15.33 0.32 15.66 1 16 C0.67 14.824375 0.34 13.64875 0 12.4375 C-0.9732287 8.55838985 -1.24568042 5.01278025 -1 1 C-0.67 0.67 -0.34 0.34 0 0 Z M2 6 C2 6.99 2 7.98 2 9 C2.66 9 3.32 9 4 9 C3.67 8.01 3.34 7.02 3 6 C2.67 6 2.34 6 2 6 Z M5 10 C4.01 10.495 4.01 10.495 3 11 C3 11.99 3 12.98 3 14 C4.32 14 5.64 14 7 14 C7.33 13.01 7.66 12.02 8 11 C7.01 10.67 6.02 10.34 5 10 Z M-14 13 C-14 14.32 -14 15.64 -14 17 C-13.01 17 -12.02 17 -11 17 C-11.33 15.68 -11.66 14.36 -12 13 C-12.66 13 -13.32 13 -14 13 Z " fill="#FEFEFC" transform="translate(450,271)"/>
<path d="M0 0 C0.66 0 1.32 0 2 0 C2 0.99 2 1.98 2 3 C3.01320313 3.07347656 3.01320313 3.07347656 4.046875 3.1484375 C4.93890625 3.22320312 5.8309375 3.29796875 6.75 3.375 C7.63171875 3.44460938 8.5134375 3.51421875 9.421875 3.5859375 C11.99066382 3.99850055 13.75841015 4.71160957 16 6 C15.67 6.99 15.34 7.98 15 9 C11.4375 10.6875 11.4375 10.6875 8 12 C8 12.66 8 13.32 8 14 C9.98 14 11.96 14 14 14 C13.34 18.62 12.68 23.24 12 28 C11.34 28 10.68 28 10 28 C10 27.34 10 26.68 10 26 C9.34 26.33 8.68 26.66 8 27 C8 28.32 8 29.64 8 31 C9.32 30.67 10.64 30.34 12 30 C12 31.98 12 33.96 12 36 C8.34061828 34.56835889 4.76011932 33.01065704 1.1875 31.375 C0.21167969 30.92898438 -0.76414062 30.48296875 -1.76953125 30.0234375 C-2.50558594 29.68570312 -3.24164063 29.34796875 -4 29 C-4 27.68 -4 26.36 -4 25 C-2.0429132 24.32968281 -0.08428887 23.66385317 1.875 23 C2.96554687 22.62875 4.05609375 22.2575 5.1796875 21.875 C8 21 8 21 10 21 C10 20.01 10 19.02 10 18 C5.71 17.67 1.42 17.34 -3 17 C-3 15.35 -3 13.7 -3 12 C-1.25 10.41796875 -1.25 10.41796875 1 9.1875 C1.7425 8.76855469 2.485 8.34960938 3.25 7.91796875 C3.8275 7.61503906 4.405 7.31210937 5 7 C3.68 6.34 2.36 5.68 1 5 C0.67 5.66 0.34 6.32 0 7 C-0.93423645 3.98968256 -1.04449911 3.13349732 0 0 Z M2 28 C2.33 28.66 2.66 29.32 3 30 C3.66 30 4.32 30 5 30 C5 29.34 5 28.68 5 28 C4.01 28 3.02 28 2 28 Z " fill="#FCFCFB" transform="translate(406,325)"/>
<path d="M0 0 C3.02615132 0.60790236 5.1619395 1.54296412 7.6875 3.3125 C8.28949219 3.72113281 8.89148438 4.12976563 9.51171875 4.55078125 C11.35266094 6.34340475 11.78780949 7.44877926 12 10 C11.01 11.485 11.01 11.485 10 13 C9.01 13 8.02 13 7 13 C6.67 14.32 6.34 15.64 6 17 C6.66 17.33 7.32 17.66 8 18 C8 18.66 8 19.32 8 20 C6.0085944 20.38133299 4.00720923 20.71325582 2 21 C1.67 20.67 1.34 20.34 1 20 C1.17635452 17.30917128 1.61835921 14.67148554 2 12 C1.34 12 0.68 12 0 12 C-0.33 13.98 -0.66 15.96 -1 18 C-2.17219543 17.21654285 -3.33763668 16.42297164 -4.5 15.625 C-5.47453125 14.96371094 -5.47453125 14.96371094 -6.46875 14.2890625 C-7.22671875 13.65097656 -7.22671875 13.65097656 -8 13 C-8 12.34 -8 11.68 -8 11 C-7.01 10.67 -6.02 10.34 -5 10 C-2.58572726 6.80463901 -0.6163897 4.00653305 0 0 Z M5 5 C4.34 6.32 3.68 7.64 3 9 C4.32 9 5.64 9 7 9 C6.67 7.68 6.34 6.36 6 5 C5.67 5 5.34 5 5 5 Z " fill="#FDFDFB" transform="translate(550,272)"/>
<path d="M0 0 C3.85025879 0.60355408 6.86101159 1.76772603 10.3125 3.5625 C11.19550781 4.01753906 12.07851563 4.47257812 12.98828125 4.94140625 C13.98408203 5.46541016 13.98408203 5.46541016 15 6 C14.67 7.98 14.34 9.96 14 12 C13.01 12 12.02 12 11 12 C10.67 11.01 10.34 10.02 10 9 C9.01 10.98 8.02 12.96 7 15 C6.34 15 5.68 15 5 15 C5 15.66 5 16.32 5 17 C6.32 15.68 7.64 14.36 9 13 C9.99 13.33 10.98 13.66 12 14 C9.25 19.875 9.25 19.875 7 21 C4.75689987 20.10333658 2.55245679 19.10853317 0.375 18.0625 C-0.81351563 17.49660156 -2.00203125 16.93070312 -3.2265625 16.34765625 C-4.14179687 15.90292969 -5.05703125 15.45820313 -6 15 C-5.04867187 13.83984375 -5.04867187 13.83984375 -4.078125 12.65625 C-0.83266976 8.50792375 0.30049608 5.25868143 0 0 Z M6 5 C5.67 6.32 5.34 7.64 5 9 C5.66 9 6.32 9 7 9 C7 8.34 7 7.68 7 7 C7.99 6.67 8.98 6.34 10 6 C8.68 5.67 7.36 5.34 6 5 Z M3 11 C2.67 12.65 2.34 14.3 2 16 C2.99 15.67 3.98 15.34 5 15 C5 13.68 5 12.36 5 11 C4.34 11 3.68 11 3 11 Z " fill="#FCFDFC" transform="translate(532,263)"/>
<path d="M0 0 C0.99 0 1.98 0 3 0 C3.67220351 1.93558599 4.33758077 3.87354372 5 5.8125 C5.556875 7.43091797 5.556875 7.43091797 6.125 9.08203125 C7 12 7 12 7 15 C5.02 15.33 3.04 15.66 1 16 C1.66 13.03 2.32 10.06 3 7 C1.02 7.99 1.02 7.99 -1 9 C-0.01 9.33 0.98 9.66 2 10 C2 10.66 2 11.32 2 12 C-0.90600261 13.25664978 -2.79604584 14 -6 14 C-4.8509288 15.2981424 -4.8509288 15.2981424 -2 16 C-2 16.66 -2 17.32 -2 18 C-4.31 18.66 -6.62 19.32 -9 20 C-9.70005949 17.92085336 -10.38462244 15.83648414 -11.0625 13.75 C-11.44535156 12.58984375 -11.82820312 11.4296875 -12.22265625 10.234375 C-12.95211763 7.19922915 -13.11889082 5.84296787 -12 3 C-11.29875 3.20625 -10.5975 3.4125 -9.875 3.625 C-6.35683738 4.08389078 -4.23287101 3.39601248 -1 2 C-0.67 1.34 -0.34 0.68 0 0 Z M-6 9 C-5.67 9.99 -5.34 10.98 -5 12 C-4.67 11.01 -4.34 10.02 -4 9 C-4.66 9 -5.32 9 -6 9 Z " fill="#FCFCFA" transform="translate(589,318)"/>
<path d="M0 0 C0.33 0.99 0.66 1.98 1 3 C3.01508358 3.73323796 3.01508358 3.73323796 5 4 C4.01 5.485 4.01 5.485 3 7 C3.66 7.33 4.32 7.66 5 8 C5.10824843 9.6026782 5.18570645 11.20745748 5.25 12.8125 C5.29640625 13.70582031 5.3428125 14.59914063 5.390625 15.51953125 C5 18 5 18 3.17578125 19.80078125 C0.24886825 21.41399901 -1.70785907 21.42027331 -5 21 C-7.26618648 19.7050363 -7.847599 18.53826738 -8.55078125 16.0546875 C-8.71964844 15.33539063 -8.88851563 14.61609375 -9.0625 13.875 C-9.371875 12.59625 -9.68125 11.3175 -10 10 C-10.66 9.67 -11.32 9.34 -12 9 C-11.67 8.01 -11.34 7.02 -11 6 C-10.34 5.67 -9.68 5.34 -9 5 C-8.34786708 2.97536745 -8.34786708 2.97536745 -8 1 C-5.10765685 0.17361624 -3.11257569 0 0 0 Z M-5 3 C-5 6.21727764 -4.76673144 8.55105546 -4.0625 11.625 C-3.88847656 12.40101563 -3.71445312 13.17703125 -3.53515625 13.9765625 C-3.06071471 16.04828247 -3.06071471 16.04828247 -2 18 C-0.68 18 0.64 18 2 18 C3.12377697 14.69564916 2.89554742 12.9493138 1.5625 9.75 C1.13130859 8.69039063 1.13130859 8.69039063 0.69140625 7.609375 C0.46324219 7.07828125 0.23507812 6.5471875 0 6 C-0.66 6 -1.32 6 -2 6 C-2 5.34 -2 4.68 -2 4 C-2.99 3.67 -3.98 3.34 -5 3 Z " fill="#FDFDFC" transform="translate(479,256)"/>
<path d="M0 0 C1.98 0 3.96 0 6 0 C6 5.28 6 10.56 6 16 C2 16 2 16 0.078125 14.25 C-0.52515625 13.5075 -1.1284375 12.765 -1.75 12 C-2.36359375 11.2575 -2.9771875 10.515 -3.609375 9.75 C-4.29773438 8.88375 -4.29773438 8.88375 -5 8 C-5.33 8.66 -5.66 9.32 -6 10 C-5.34 10.33 -4.68 10.66 -4 11 C-4.33 12.32 -4.66 13.64 -5 15 C-4.34 15 -3.68 15 -3 15 C-3 15.66 -3 16.32 -3 17 C-5.31 17 -7.62 17 -10 17 C-10 16.34 -10 15.68 -10 15 C-9.34 15 -8.68 15 -8 15 C-8.1135629 13.35333797 -8.24117381 11.70763918 -8.375 10.0625 C-8.44460938 9.14597656 -8.51421875 8.22945313 -8.5859375 7.28515625 C-8.72257812 6.53105469 -8.85921875 5.77695312 -9 5 C-9.66 4.67 -10.32 4.34 -11 4 C-10.67 3.01 -10.34 2.02 -10 1 C-7.25 0.75 -7.25 0.75 -4 1 C-1.75 3 -1.75 3 0 5 C0.66 5 1.32 5 2 5 C1.34 3.35 0.68 1.7 0 0 Z " fill="#FCFCFB" transform="translate(496,257)"/>
<path d="M0 0 C0.33 -0.33 0.66 -0.66 1 -1 C3.9375 -1.1875 3.9375 -1.1875 7 -1 C9.39763185 1.39763185 9.34280586 2.33273498 9.625 5.625 C9.69976563 6.44226563 9.77453125 7.25953125 9.8515625 8.1015625 C9.92503906 9.04128906 9.92503906 9.04128906 10 10 C8.989375 9.938125 7.97875 9.87625 6.9375 9.8125 C2.44500628 10.02642827 -0.01085961 11.04613532 -4 13 C-4 12.34 -4 11.68 -4 11 C-4.99 10.67 -5.98 10.34 -7 10 C-8 2.25 -8 2.25 -8 0 C-4.68589597 -1.10470134 -3.32050692 -0.69905409 0 0 Z M-3 2 C-3.66 2.66 -4.32 3.32 -5 4 C-5 5.32 -5 6.64 -5 8 C-4.01 8 -3.02 8 -2 8 C-1.67 6.02 -1.34 4.04 -1 2 C-1.66 2 -2.32 2 -3 2 Z M5 2 C3.70366379 3.06645115 3.70366379 3.06645115 3.9375 5.5625 C3.958125 6.366875 3.97875 7.17125 4 8 C4.99 7.01 5.98 6.02 7 5 C6.67 4.01 6.34 3.02 6 2 C5.67 2 5.34 2 5 2 Z " fill="#FCFCFA" transform="translate(589,339)"/>
<path d="M0 0 C2.91591582 1.16636633 4.4524947 2.64916058 6.5 5 C5.6875 6.9375 5.6875 6.9375 4.5 9 C3.51 9.33 2.52 9.66 1.5 10 C1.37625 9.030625 1.2525 8.06125 1.125 7.0625 C0.91875 6.051875 0.7125 5.04125 0.5 4 C-0.16 3.67 -0.82 3.34 -1.5 3 C-1.23703125 3.59167969 -0.9740625 4.18335938 -0.703125 4.79296875 C0.26138586 7.21610464 1.05682765 9.42701881 1.5 12 C-0.3125 15.0625 -0.3125 15.0625 -2.5 17 C-5.28211944 16.62403791 -7.0879284 16.32681541 -9.3125 14.5625 C-10.5 13 -10.5 13 -10.5 11 C-11.16 11 -11.82 11 -12.5 11 C-9.5 5 -9.5 5 -6.5 4 C-5.88125 3.29875 -5.2625 2.5975 -4.625 1.875 C-2.5 0 -2.5 0 0 0 Z M-7.5 7 C-7.5 8.98 -7.5 10.96 -7.5 13 C-6.51 13.33 -5.52 13.66 -4.5 14 C-4.83 11.69 -5.16 9.38 -5.5 7 C-6.16 7 -6.82 7 -7.5 7 Z " fill="#FDFDFC" transform="translate(568.5,285)"/>
<path d="M0 0 C1.60546875 2.08203125 1.60546875 2.08203125 3.1875 4.8125 C3.71730469 5.70582031 4.24710938 6.59914063 4.79296875 7.51953125 C6 10 6 10 6 13 C4.02 13.66 2.04 14.32 0 15 C0.33 13.35 0.66 11.7 1 10 C-0.11375 10.66 -1.2275 11.32 -2.375 12 C-5.75 14 -5.75 14 -8 14 C-7.67 14.99 -7.34 15.98 -7 17 C-7.99 17 -8.98 17 -10 17 C-12.10770759 14.11165997 -13 12.61537605 -13 9 C-12.113125 8.896875 -11.22625 8.79375 -10.3125 8.6875 C-6.9426298 7.98809298 -4.82728462 6.91257489 -2 5 C-3.65 4.67 -5.3 4.34 -7 4 C-6.67 3.01 -6.34 2.02 -6 1 C-3 0 -3 0 0 0 Z " fill="#FDFCFA" transform="translate(584,303)"/>
<path d="M0 0 C2.64 0.66 5.28 1.32 8 2 C8 2.66 8 3.32 8 4 C7.34 4 6.68 4 6 4 C6.66 5.98 7.32 7.96 8 10 C9.50930183 6.6136749 9.50930183 6.6136749 10 3 C12.97 3.495 12.97 3.495 16 4 C16 4.66 16 5.32 16 6 C15.443125 6.53625 14.88625 7.0725 14.3125 7.625 C11.6968365 10.3113571 10.11652077 13.10860345 8.34375 16.390625 C7.9003125 16.92171875 7.456875 17.4528125 7 18 C5.68 18 4.36 18 3 18 C2.49645133 15.56318413 1.99703244 13.12564561 1.5 10.6875 C1.35691406 9.99720703 1.21382812 9.30691406 1.06640625 8.59570312 C0.47374956 5.67475227 0 2.98891878 0 0 Z " fill="#FDFDFC" transform="translate(515,258)"/>
<path d="M0 0 C0.99 0.33 1.98 0.66 3 1 C2.42415568 3.38564077 1.77772405 5.66682784 1 8 C-1.31254012 9.04718798 -3.6485148 10.04346365 -6 11 C-8.40083438 12.35885116 -8.40083438 12.35885116 -10 14 C-10 14.99 -10 15.98 -10 17 C-12.86207152 15.71700242 -15.0245088 14.469364 -17 12 C-17 11.01 -17 10.02 -17 9 C-15.6696875 8.5978125 -15.6696875 8.5978125 -14.3125 8.1875 C-11.19292719 7.06916258 -8.6919172 5.922798 -6 4 C-5.67 3.01 -5.34 2.02 -5 1 C-3.68 1 -2.36 1 -1 1 C-0.67 0.67 -0.34 0.34 0 0 Z " fill="#FCFDFC" transform="translate(581,294)"/>
<path d="M0 0 C0.99 0 1.98 0 3 0 C3.33 0.66 3.66 1.32 4 2 C6.02463255 2.65213292 6.02463255 2.65213292 8 3 C8 4.32 8 5.64 8 7 C6.68 7 5.36 7 4 7 C3.67 7.66 3.34 8.32 3 9 C2.01 8.67 1.02 8.34 0 8 C-1.89212737 7.77820215 -3.78884472 7.59385985 -5.6875 7.4375 C-6.68136719 7.35371094 -7.67523437 7.26992188 -8.69921875 7.18359375 C-9.83810547 7.09271484 -9.83810547 7.09271484 -11 7 C-11 7.66 -11 8.32 -11 9 C-11.66 9 -12.32 9 -13 9 C-13.33 6.69 -13.66 4.38 -14 2 C-10.6888987 0.89629957 -8.75251051 1.07326359 -5.3125 1.4375 C-4.31863281 1.53933594 -3.32476563 1.64117187 -2.30078125 1.74609375 C-1.54152344 1.82988281 -0.78226563 1.91367187 0 2 C0 1.34 0 0.68 0 0 Z " fill="#FBFCFA" transform="translate(596,351)"/>
<path d="M0 0 C1.32 0 2.64 0 4 0 C4 0.99 4 1.98 4 3 C5.43750191 4.68798827 5.43750191 4.68798827 7 6 C6.67 6.66 6.34 7.32 6 8 C5.34 7.67 4.68 7.34 4 7 C4.01160156 7.62648438 4.02320313 8.25296875 4.03515625 8.8984375 C4.04417969 9.71570313 4.05320312 10.53296875 4.0625 11.375 C4.07410156 12.18710937 4.08570313 12.99921875 4.09765625 13.8359375 C4 16 4 16 3 18 C3.66 18 4.32 18 5 18 C5 18.66 5 19.32 5 20 C2.03 20 -0.94 20 -4 20 C-3.33333333 18 -2.66666667 16 -2 14 C-1.5982661 8.85056722 -1.5982661 8.85056722 -3 4 C-2.01 3.67 -1.02 3.34 0 3 C0 2.01 0 1.02 0 0 Z " fill="#FDFCFB" transform="translate(507,254)"/>
<path d="M0 0 C0.99 0 1.98 0 3 0 C3 0.99 3 1.98 3 3 C2.01 2.67 1.02 2.34 0 2 C0 1.34 0 0.68 0 0 Z " fill="#FFFFFF" transform="translate(410,324)"/>
<path d="M0 0 C0.99 0.33 1.98 0.66 3 1 C3.33 1.99 3.66 2.98 4 4 C3.34 4 2.68 4 2 4 C2 3.34 2 2.68 2 2 C1.34 2 0.68 2 0 2 C0 1.34 0 0.68 0 0 Z " fill="#FFFFFF" transform="translate(493,270)"/>
<path d="M0 0 C0.66 0 1.32 0 2 0 C1.67 1.32 1.34 2.64 1 4 C0.67 2.68 0.34 1.36 0 0 Z " fill="#FFFFFF" transform="translate(547,272)"/>
<path d="M0 0 C0.66 0 1.32 0 2 0 C1.67 0.99 1.34 1.98 1 3 C0.67 2.01 0.34 1.02 0 0 Z " fill="#FFFFFF" transform="translate(499,275)"/>
<path d="" fill="#FFFFFF" transform="translate(0,0)"/>
<path d="" fill="#FFFFFF" transform="translate(0,0)"/>
<path d="" fill="#F6FFFF" transform="translate(0,0)"/>
<path d="" fill="#FFFFFF" transform="translate(0,0)"/>
<path d="" fill="#FFFFFF" transform="translate(0,0)"/>
<path d="" fill="#FFFFFF" transform="translate(0,0)"/>
<path d="" fill="#E6E6FF" transform="translate(0,0)"/>
<path d="" fill="#FFFFFF" transform="translate(0,0)"/>
<path d="" fill="#FFFFFF" transform="translate(0,0)"/>
<path d="" fill="#FFFFFF" transform="translate(0,0)"/>
<path d="" fill="#FFFFFF" transform="translate(0,0)"/>
<path d="" fill="#FFFFFF" transform="translate(0,0)"/>
<path d="" fill="#FFFFFF" transform="translate(0,0)"/>
<path d="" fill="#FFFFFF" transform="translate(0,0)"/>
<path d="" fill="#FFFFFF" transform="translate(0,0)"/>
<path d="" fill="#FFFFFF" transform="translate(0,0)"/>
<path d="" fill="#E6E6FF" transform="translate(0,0)"/>
</svg>
